<svg width="16" height="17" viewBox="0 0 16 17" fill="none" xmlns="http://www.w3.org/2000/svg">
<g clip-path="url(#clip0_633_32095)">
<path fill-rule="evenodd" clip-rule="evenodd" d="M1.75 8.5C1.75 5.04822 4.54822 2.25 8 2.25C11.4518 2.25 14.25 5.04822 14.25 8.5C14.25 11.9518 11.4518 14.75 8 14.75C4.54822 14.75 1.75 11.9518 1.75 8.5ZM8 0.75C3.71979 0.75 0.25 4.21979 0.25 8.5C0.25 12.7802 3.71979 16.25 8 16.25C12.2802 16.25 15.75 12.7802 15.75 8.5C15.75 4.21979 12.2802 0.75 8 0.75ZM11.5303 7.03033C11.8232 6.73744 11.8232 6.26256 11.5303 5.96967C11.2374 5.67678 10.7626 5.67678 10.4697 5.96967L7 9.43934L5.53033 7.96967C5.23744 7.67678 4.76256 7.67678 4.46967 7.96967C4.17678 8.26256 4.17678 8.73744 4.46967 9.03033L6.46967 11.0303C6.76256 11.3232 7.23744 11.3232 7.53033 11.0303L11.5303 7.03033Z" fill="#52C41A"/>
</g>
<defs>
<clipPath id="clip0_633_32095">
<rect width="16" height="16" fill="white" transform="translate(0 0.5)"/>
</clipPath>
</defs>
</svg>
