<svg width="26" height="26" viewBox="0 0 26 26" fill="none" xmlns="http://www.w3.org/2000/svg">
<path d="M1 13C1 6.37258 6.37258 1 13 1V1C19.6274 1 25 6.37258 25 13V13C25 19.6274 19.6274 25 13 25V25C6.37258 25 1 19.6274 1 13V13Z" fill="#FF4D4F"/>
<path fill-rule="evenodd" clip-rule="evenodd" d="M8.53034 7.46965C8.23745 7.17676 7.76257 7.17676 7.46968 7.46965C7.17679 7.76255 7.17679 8.23742 7.46968 8.53031L11.9393 13L7.46967 17.4697C7.17678 17.7626 7.17678 18.2374 7.46967 18.5303C7.76256 18.8232 8.23744 18.8232 8.53033 18.5303L13 14.0606L17.4697 18.5303C17.7626 18.8232 18.2374 18.8232 18.5303 18.5303C18.8232 18.2374 18.8232 17.7625 18.5303 17.4697L14.0607 13L18.5303 8.53032C18.8232 8.23743 18.8232 7.76256 18.5303 7.46966C18.2374 7.17677 17.7626 7.17677 17.4697 7.46966L13 11.9393L8.53034 7.46965Z" fill="white"/>
<path d="M13 24.5C6.64873 24.5 1.5 19.3513 1.5 13H0.5C0.5 19.9036 6.09644 25.5 13 25.5V24.5ZM24.5 13C24.5 19.3513 19.3513 24.5 13 24.5V25.5C19.9036 25.5 25.5 19.9036 25.5 13H24.5ZM13 1.5C19.3513 1.5 24.5 6.64873 24.5 13H25.5C25.5 6.09644 19.9036 0.5 13 0.5V1.5ZM13 0.5C6.09644 0.5 0.5 6.09644 0.5 13H1.5C1.5 6.64873 6.64873 1.5 13 1.5V0.5Z" fill="#FF4D4F"/>
</svg>
